{"title":"PINGU-STINKY PINGU[8 EPISODES] -AAC MP4 BY WINKER@KIDZCORNER","uid":5535069,"size":942997401,"categoryP":"video","categoryS":"movies","magnet":"?xt=urn:btih:71cfe0b6e8ff4ecb4d3b54f9bd330760d1248e53&amp;dn=PINGU-STINKY+PINGU%5B8+EPISODES%5D+-AAC+MP4+BY+WINKER%40KIDZCORNER&amp;tr=udp%3A%2F%2Ftracker.openbittorrent.com%3A80&amp;tr=udp%3A%2F%2Fopen.demonii.com%3A1337&amp;tr=udp%3A%2F%2Ftracker.coppersurfer.tk%3A6969&amp;tr=udp%3A%2F%2Fexodus.desync.com%3A6969","seeders":2,"leechers":0,"uploader":"alanwatson","files":-1,"time":1273046620,"description":"Format : MPEG-4\nFormat profile : Base Media / Version 2\nCodec ID : mp42\nFile size : 899 MiB\nDuration : 41mn 3s\nOverall bit rate : 3 063 Kbps\nEncoded date : UTC 2010-05-01 07:04:50\nTagged date : UTC 2010-05-01 11:49:18\nWriting application : HandBrake 0.9.3 2008112300\n\nVideo\nID : 1\nFormat : AVC\nFormat/Info : Advanced Video Codec\nFormat profile : &lt;a class=&quot;__cf_email__&quot; href=&quot;/cdn-cgi/l/email-protection&quot; data-cfemail=&quot;99d4f8f0f7d9d5adb7a9&quot;&gt;[email&amp;#160;protected]&lt;/a&gt;&lt;script cf-hash='f9e31' type=&quot;text/javascript&quot;&gt;\n/* &lt;![CDATA[ */!function(){try{var t=&quot;currentScript&quot;in document?document.currentScript:function(){for(var t=document.getElementsByTagName(&quot;script&quot;),e=t.length;e--;)if(t[e].getAttribute(&quot;cf-hash&quot;))return t[e]}();if(t&amp;&amp;t.previousSibling){var e,r,n,i,c=t.previousSibling,a=c.getAttribute(&quot;data-cfemail&quot;);if(a){for(e=&quot;&quot;,r=parseInt(a.substr(0,2),16),n=2;a.length-n;n+=2)i=parseInt(a.substr(n,2),16)^r,e+=String.fromCharCode(i);e=document.createTextNode(e),c.parentNode.replaceChild(e,c)}}}catch(u){}}();/* ]]&gt; */&lt;/script&gt;\nFormat settings, CABAC : Yes\nFormat settings, ReFrames : 3 frames\nCodec ID : avc1\nCodec ID/Info : Advanced Video Coding\nDuration : 41mn 3s\nBit rate mode : Variable\nBit rate : 2 900 Kbps\nWidth : 720 pixels\nHeight : 576 pixels\nDisplay aspect ratio : 16:9\nFrame rate mode : Variable\nFrame rate : 25.000 fps\nMinimum frame rate : 12.500 fps\nMaximum frame rate : 25.000 fps\nStandard : PAL\nResolution : 8 bits\nColorimetry : 4:2:0\nScan type : Progressive\nBits/(Pixel*Frame) : 0.280\nStream size : 851 MiB (95%)\n\nLanguage : English\nEncoded date : UTC 2010-05-01 07:04:51\nTagged date : UTC 2010-05-01 11:49:18\nColor primaries : BT.601-6 525, BT.1358 525, BT.1700 NTSC, SMPTE 170M\nTransfer characteristics : BT.709-5, BT.1361\nMatrix coefficients : BT.601-6 525, BT.1358 525, BT.1700 NTSC, SMPTE 170M\n\nAudio\nID : 2\nFormat : AAC\nFormat/Info : Advanced Audio Codec\nFormat version : Version 4\nFormat profile : LC\nFormat settings, SBR : No\nCodec ID : 40\nDuration : 40mn 55s\nBit rate mode : Variable\nBit rate : 160 Kbps\nMaximum bit rate : 251 Kbps\nChannel(s) : 2 channels\nChannel positions : L R\nSampling rate : 48.0 KHz\nStream size : 46.8 MiB (5%)\nLanguage : English\nEncoded date : UTC 2010-05-01 07:04:51\nTagged date : UTC 2010-05-01 11:49:17","torrent":{"xt":"urn:btih:71cfe0b6e8ff4ecb4d3b54f9bd330760d1248e53","amp;dn":"PINGU-STINKY+PINGU%5B8+EPISODES%5D+-AAC+MP4+BY+WINKER%40KIDZCORNER","amp;tr":["udp%3A%2F%2Ftracker.openbittorrent.com%3A80","udp%3A%2F%2Fopen.demonii.com%3A1337","udp%3A%2F%2Ftracker.coppersurfer.tk%3A6969","udp%3A%2F%2Fexodus.desync.com%3A6969"],"infoHash":"71cfe0b6e8ff4ecb4d3b54f9bd330760d1248e53","infoHashBuffer":{"type":"Buffer","data":[113,207,224,182,232,255,78,203,77,59,84,249,189,51,7,96,209,36,142,83]},"announce":[],"urlList":[]}}